<svg width="204" height="56" viewBox="0 0 204 56" fill="none" xmlns="http://www.w3.org/2000/svg">
<path d="M96.3579 24.8265H100.094V26.321C100.814 25.5682 101.428 25.059 101.937 24.7933C102.48 24.5165 103.161 24.3781 103.98 24.3781C105.806 24.3781 107.251 25.1752 108.314 26.7693C109.487 25.1752 111.076 24.3781 113.079 24.3781C116.722 24.3781 118.543 26.5866 118.543 31.0036V41H114.79V32.0166C114.79 30.4667 114.602 29.3708 114.225 28.7287C113.838 28.0756 113.201 27.749 112.316 27.749C111.286 27.749 110.533 28.1365 110.057 28.9114C109.592 29.6863 109.36 30.9317 109.36 32.6476V41H105.607V32.0664C105.607 29.1881 104.777 27.749 103.116 27.749C102.065 27.749 101.295 28.142 100.808 28.928C100.332 29.714 100.094 30.9538 100.094 32.6476V41H96.3579V24.8265ZM127.036 37.9944L119.763 24.8265H124.097L129.045 34.1254L133.661 24.8265H137.879L124.994 49.8008H120.726L127.036 37.9944ZM148.199 15.3615V31.9501C148.199 33.9317 148.061 35.4096 147.784 36.3837C147.507 37.4908 147.037 38.4262 146.373 39.19C145.077 40.7066 143.362 41.4649 141.225 41.4649C139.609 41.4649 138.098 41.0443 136.692 40.2029L138.585 36.8985C139.526 37.5295 140.406 37.845 141.225 37.845C142.376 37.845 143.173 37.4077 143.616 36.5332C144.081 35.6586 144.314 34.131 144.314 31.9501V15.3615H148.199ZM152.11 32.797C152.11 30.4612 152.945 28.4741 154.617 26.8357C156.289 25.1973 158.325 24.3781 160.728 24.3781C163.141 24.3781 165.189 25.2029 166.872 26.8523C168.532 28.5018 169.362 30.5276 169.362 32.9298C169.362 35.3542 168.527 37.3856 166.855 39.024C165.172 40.6513 163.108 41.4649 160.661 41.4649C158.237 41.4649 156.205 40.6347 154.567 38.9742C152.929 37.3358 152.11 35.2767 152.11 32.797ZM155.929 32.8634C155.929 34.4797 156.36 35.7583 157.224 36.6992C158.11 37.6513 159.277 38.1273 160.728 38.1273C162.189 38.1273 163.357 37.6568 164.231 36.7158C165.106 35.7749 165.543 34.5184 165.543 32.9465C165.543 31.3745 165.106 30.118 164.231 29.1771C163.346 28.225 162.178 27.749 160.728 27.749C159.3 27.749 158.143 28.225 157.257 29.1771C156.372 30.1291 155.929 31.3579 155.929 32.8634ZM176.311 12.9537V26.7029C177.806 25.1531 179.5 24.3781 181.393 24.3781C183.574 24.3781 185.389 25.1918 186.839 26.8191C188.289 28.4354 189.015 30.4501 189.015 32.8634C189.015 35.3542 188.284 37.4133 186.823 39.0406C185.372 40.6568 183.54 41.4649 181.326 41.4649C179.455 41.4649 177.784 40.7454 176.311 39.3063V41H172.575V12.9537H176.311ZM185.195 33.0295C185.195 31.4797 184.775 30.2177 183.933 29.2435C183.081 28.2472 182.013 27.749 180.728 27.749C179.356 27.749 178.238 28.2306 177.374 29.1937C176.522 30.1457 176.096 31.3856 176.096 32.9132C176.096 34.4852 176.516 35.7417 177.358 36.6826C178.199 37.6457 179.306 38.1273 180.679 38.1273C181.974 38.1273 183.048 37.6457 183.9 36.6826C184.764 35.7085 185.195 34.4907 185.195 33.0295ZM201.609 27.583L198.521 29.2269C198.034 28.2306 197.43 27.7324 196.711 27.7324C196.368 27.7324 196.074 27.8486 195.831 28.0811C195.587 28.3025 195.465 28.5903 195.465 28.9446C195.465 29.5645 196.185 30.1789 197.624 30.7878C199.606 31.6402 200.94 32.4262 201.626 33.1457C202.312 33.8653 202.656 34.8339 202.656 36.0516C202.656 37.6125 202.08 38.9188 200.929 39.9705C199.811 40.9668 198.46 41.4649 196.877 41.4649C194.165 41.4649 192.244 40.1421 191.115 37.4963L194.303 36.0184C194.746 36.7933 195.084 37.286 195.316 37.4963C195.77 37.917 196.312 38.1273 196.943 38.1273C198.205 38.1273 198.836 37.5516 198.836 36.4003C198.836 35.7361 198.349 35.1162 197.375 34.5406C196.999 34.3524 196.622 34.1697 196.246 33.9926C195.87 33.8155 195.488 33.6328 195.1 33.4446C194.015 32.9132 193.251 32.3819 192.809 31.8505C192.244 31.1752 191.962 30.3062 191.962 29.2435C191.962 27.8376 192.443 26.6752 193.406 25.7564C194.392 24.8376 195.587 24.3781 196.993 24.3781C199.063 24.3781 200.602 25.4464 201.609 27.583Z" fill="#E5E5E5"/>
<path fill-rule="evenodd" clip-rule="evenodd" d="M45.5055 6.80822C42.2889 9.59635 40.3711 12.5954 38.2607 18.1375C37.4898 20.1627 37.1287 20.5143 35.5349 20.7941C34.5248 20.9714 30.9911 20.7454 27.6833 20.2908C21.3633 19.4234 17.4375 19.5916 14.8572 20.8408C13.5798 21.4591 13.2998 21.4561 12.7344 20.8187C12.0461 20.0422 11.132 20.2546 11.132 21.1909C11.132 21.4968 11.2935 21.5957 11.4909 21.4109C11.9678 20.9643 13.8143 22.5571 13.8143 23.4154C13.8143 24.1312 14.4714 24.313 15.0615 23.7605C15.2557 23.5787 15.1688 23.1533 14.869 22.8147C14.0981 21.9453 18.3613 21.4028 21.2276 22.0056C29.9627 23.8434 34.8391 32.6623 32.5731 42.525C31.7384 46.158 31.4621 46.4176 29.1854 45.7145C24.4833 44.2614 19.1665 37.5766 18.3538 32.0963C18.0389 29.9721 18.6124 25.5195 19.4653 23.4632C19.7636 22.7449 19.5345 22.5842 18.2159 22.5842C16.1017 22.5842 15.0385 24.859 16.3394 26.5984C17.0899 27.6014 17.0722 27.8164 16.1393 29.0339C15.2987 30.1309 15.1817 30.8476 15.4843 33.0446C16.6591 41.5717 25.3331 49.2043 34.7903 50.031C41.5899 50.6257 49.0864 47.6758 53.2439 42.7706C55.3474 40.2889 56.7309 39.5149 56.7309 40.8208C56.7309 41.4768 75.0305 49.2058 76.5798 49.2048C77.4489 49.2038 79.9456 44.1544 79.3474 43.6069C79.1532 43.4286 74.728 41.5807 69.5136 39.4998C63.5187 37.1075 59.6208 35.8181 58.9105 35.9919C57.8167 36.2596 57.7968 36.1567 58.1375 32.0028C58.8204 23.6897 55.1441 16.9075 47.5167 12.4066C46.0833 11.5607 46.0806 11.5623 45.7062 13.1585C45.4401 14.2911 45.5388 14.822 46.0447 14.9797C47.7173 15.5016 52.0036 19.9136 53.3716 22.5214C54.6564 24.971 54.8533 25.9474 54.8533 29.8672C54.8533 33.7874 54.658 34.7543 53.3834 37.1502C52.5755 38.6695 51.215 40.648 50.361 41.5466L48.808 43.1805L48.4265 40.32C48.2162 38.7469 47.3483 35.1858 46.4974 32.4062C44.2084 24.9308 43.8414 21.6414 44.7014 16.3057C45.5978 10.7446 46.1112 9.08202 47.8128 6.23111C48.5456 5.00405 49.0553 4 48.9453 4C48.8353 4 47.2871 5.26372 45.5055 6.80822ZM30.0915 9.77516C25.6775 11.513 26.9006 18.7282 31.8285 20.0221C34.1208 20.6243 36.5198 19.5921 37.3878 17.6302C39.3615 13.1695 34.5704 8.01217 30.0915 9.77516ZM35.8267 9.83342C35.8546 10.5261 37.5879 12.3011 38.5852 12.6582C39.1925 12.8762 39.7708 12.5693 40.3711 11.7114C40.8598 11.0133 41.1608 10.3498 41.0401 10.2373C40.5578 9.78571 35.8101 9.41804 35.8267 9.83342ZM24.2216 13.4568C23.0709 14.2384 21.2968 15.7643 20.2791 16.8472L18.4289 18.8171L20.174 18.9763C22.4829 19.1873 26.2681 16.139 26.7392 13.6904C26.914 12.7808 26.8899 12.0364 26.6855 12.0364C26.4811 12.0364 25.3723 12.6758 24.2216 13.4568ZM6.29582 20.1984C6.29046 20.9156 6.13703 21.1075 5.87631 20.7233C5.5877 20.2978 4.71113 20.7212 2.93438 22.1432C1.54173 23.2577 0.402832 24.3944 0.402832 24.6691C0.402832 25.5396 8.63907 33.6342 9.52476 33.6342C9.99094 33.6342 11.4136 32.6402 12.6872 31.4257L15.002 29.2172L13.2971 28.8666C12.3589 28.6738 11.7173 28.398 11.8707 28.2544C12.0247 28.1107 12.9307 28.2478 13.8856 28.5592C15.2316 28.9987 15.7171 28.9837 16.0502 28.4919C16.7449 27.4673 16.679 27.3699 12.4173 23.1281C8.24799 18.9783 6.31138 18.0517 6.29582 20.1984ZM6.67027 23.1809C6.49914 23.5812 6.372 23.4622 6.34625 22.877C6.32318 22.3476 6.44978 22.0513 6.62789 22.218C6.80599 22.3848 6.8253 22.8182 6.67027 23.1809ZM9.93622 27.3252C10.7414 27.7345 11.0799 28.0781 10.6883 28.0891C9.76455 28.1152 6.83389 25.3713 6.86178 24.5064C6.87359 24.1397 7.24052 24.4567 7.67773 25.2106C8.11495 25.9645 9.131 26.9158 9.93622 27.3252ZM42.2058 44.9982C42.2412 46.3659 42.0309 46.608 40.5701 46.8817C36.7655 47.594 36.7323 47.5302 38.862 43.5572L40.8121 39.9192L41.4885 41.6736C41.8603 42.639 42.1832 44.1348 42.2058 44.9982Z" fill="#E5E5E5"/>
</svg>
